<svg xmlns="http://www.w3.org/2000/svg" width="184" height="60" fill="none"><path d="M27.531 8.15a1.745 1.745 0 1 1-1.709 2.094h-.463l-5.639 5.64.542 2.125c.264-.041.532-.061.8-.06a5.565 5.565 0 0 1 2.576.602L34.794 7.42a4.212 4.212 0 0 1 5.964 0L52.763 19.46l1.432-.94a1.96 1.96 0 0 1 0-.324 2.354 2.354 0 0 1 1.685-2.252L41.492 1.54a5.254 5.254 0 0 0-7.432 0l-6.62 6.622.091-.012ZM61.777 23.565l1.36-.373-4.35-4.346a2.357 2.357 0 0 1-3.196 1.499l-1.107.824 2.178 2.18a3.286 3.286 0 0 1 5.097.216h.018ZM66.055 26.111l-1.059-1.047-2.563.487a3.28 3.28 0 0 1-1.204 2.57 4.214 4.214 0 0 1-.722 5.003l-19.75 19.713a4.212 4.212 0 0 1-5.963 0l-4.988-4.99-2.233.975c.032.142.048.288.048.433a2.018 2.018 0 0 1-.812 1.608l7.251 7.223a5.251 5.251 0 0 0 7.432 0l24.563-24.541a5.254 5.254 0 0 0 0-7.434ZM8.564 28.85v-.078a2.047 2.047 0 0 1 2.046-2.047c.479-.002.943.165 1.312.47l3.67-2.366a5.865 5.865 0 0 1-.138-1.27 5.607 5.607 0 0 1 2.684-4.815l-.217-1.084-8.424 8.427a5.274 5.274 0 0 0-1.445 2.811l.512-.048ZM25.605 47.24c.433-.007.855.129 1.204.384l1.522-1.276-5.301-5.273-.788.41a1.579 1.579 0 1 1-3.087.475 1.583 1.583 0 0 1 1.582-1.583c.345.006.68.124.951.337l.524-.445-1.102-1.12a4.31 4.31 0 0 1-.848.084 4.699 4.699 0 0 1-4.694-4.7v-.163a1.51 1.51 0 0 1-1.36.86 1.51 1.51 0 1 1 0-3.021c.062-.003.125-.003.187 0a4.215 4.215 0 0 1 .222-4.545l-1.98.819c.006.09.006.18 0 .27a2.053 2.053 0 0 1-2.051 2.053 2.056 2.056 0 0 1-1.806-1.053L7.932 30a5.202 5.202 0 0 0 1.528 3.527l14.503 14.507a2.016 2.016 0 0 1 1.642-.795Z" fill="#fff"/><path fill-rule="evenodd" clip-rule="evenodd" d="M61.007 25.166v.06a1.933 1.933 0 0 1-3.739.93 1.933 1.933 0 0 1 3.558-1.477l5.416-1.313a1.15 1.15 0 0 1 .837-1.523l-.373-2.618a2.881 2.881 0 0 1-2.257-2.245l-3.61.53a.77.77 0 0 1-1.505.283l-1.715.36a1.15 1.15 0 0 1-1.805.952l-6.547 4.087c.062.117.107.243.132.373a1.156 1.156 0 1 1-2.28.38l-10.989.15a3.46 3.46 0 0 1-6.45-1.108l-4.779.951a3.883 3.883 0 0 1-.692 1.854l7.222 3.75a4.813 4.813 0 0 1 7.822 2.926c0 .132.036.265.049.397l6.198.927a1.156 1.156 0 0 1 1.364-.664c.16.043.309.122.435.23l3.009-2.515a.788.788 0 0 1-.223-.434.77.77 0 1 1 .343.524l-2.858 2.763c.061.112.104.234.126.36a1.156 1.156 0 0 1-2.28.374 1.208 1.208 0 0 1 0-.331l-6.163-.054a4.815 4.815 0 0 1-3.965 3.948c-.278.05-.56.071-.843.067l-.078 3.563a1.924 1.924 0 0 1 1.666 2.663 1.927 1.927 0 0 1-3.062.696l-6.354 3.702c.065.118.11.246.132.379a1.15 1.15 0 0 1-1.809 1.128 1.155 1.155 0 0 1-.466-.749 1.168 1.168 0 0 1 0-.41l-3.183-1.347a1.113 1.113 0 0 1-.734.451 1.156 1.156 0 0 1-1.33-.951 1.162 1.162 0 0 1 .957-1.33 1.156 1.156 0 0 1 1.324.957c.039.164.039.335 0 .5l3.056 1.534a1.156 1.156 0 0 1 .891-.734 1.167 1.167 0 0 1 1.071.427l6.048-4.003a1.933 1.933 0 0 1 1.354-2.89l-.602-3.73a4.868 4.868 0 0 1-2.774-1.933l-9.17 5.58c.041.077.07.16.083.247a.77.77 0 0 1-.601.885.763.763 0 0 1-.885-.632.765.765 0 0 1 .632-.885.77.77 0 0 1 .68.253l8.75-6.333a4.817 4.817 0 0 1-.325-1.065 4.762 4.762 0 0 1 .228-2.348l-6.51-5.086a3.88 3.88 0 0 1-1.746.758 4.069 4.069 0 0 1-.71.055l-.289 4.273a2.87 2.87 0 0 1 2.407 2.408 2.884 2.884 0 1 1-5.729.337l-2.407-.475a.765.765 0 0 1-1.39.167.77.77 0 0 1-.102-.288.77.77 0 0 1 .602-.885.776.776 0 0 1 .884.632.683.683 0 0 1 0 .157l2.407.223a2.884 2.884 0 0 1 2.438-2.276c.185-.03.372-.041.56-.036l-.14-4.334a3.857 3.857 0 0 1-2.46-1.806l-6.06 2.835c.025.073.043.147.054.223a1.15 1.15 0 0 1-.95 1.325 1.156 1.156 0 0 1-1.24-.614L3.84 30.48a1.927 1.927 0 0 1-1.607 2.053 1.932 1.932 0 0 1-2.208-1.59 1.927 1.927 0 0 1 1.588-2.208 1.92 1.92 0 0 1 2.095 1.143l5.8-.764a1.137 1.137 0 0 1-.03-.138 1.156 1.156 0 0 1 .981-1.343 1.162 1.162 0 0 1 1.132.476l5.8-3.503a4.766 4.766 0 0 1-.09-.422 3.83 3.83 0 0 1 1.956-4.003l-.674-4.093a1.143 1.143 0 0 1-1.059-.554l-7.221 4.154a.73.73 0 0 1 .072.229.765.765 0 0 1-1.203.749.77.77 0 0 1 .289-1.382.753.753 0 0 1 .758.362l7.22-4.268a1.15 1.15 0 0 1 .843-1.571l-.168-1.204a2.889 2.889 0 0 1 .246-5.646 2.888 2.888 0 0 1 3.316 2.408c.018.097.03.196.036.295l5.073.102a.782.782 0 0 1 .638-.644.77.77 0 1 1-.662.897 1.032 1.032 0 0 1 0-.139l-5.079.139a2.896 2.896 0 0 1-2.407 2.624 2.87 2.87 0 0 1-.878 0v1.114a1.155 1.155 0 0 1 1.203.963 1.156 1.156 0 0 1-.812 1.318l1.24 3.81a2.31 2.31 0 0 1 .415-.09 3.845 3.845 0 0 1 4.338 2.817l4.856-.433a3.467 3.467 0 0 1 2.895-3.142l.33-.043 1.096-3.864a1.162 1.162 0 1 1 .602.06.815.815 0 0 1-.271 0l-.199 3.937a3.413 3.413 0 0 1 2.106 1.806l3.75-1.138a2.082 2.082 0 0 1-.109-.403 1.92 1.92 0 1 1 .24.668l-3.61 1.71a.952.952 0 0 1 0 .126c.048.337.048.68 0 1.017l10.585.734a1.156 1.156 0 0 1 2.058-.56l6.289-4.382a1.348 1.348 0 0 1-.097-.3 1.185 1.185 0 0 1 2.311-.524l1.733-.205a.764.764 0 0 1 1.48-.343l3.611-.897a2.89 2.89 0 1 1 3.009 2.871l-.066 2.535a1.156 1.156 0 0 1 .186 2.293 1.143 1.143 0 0 1-1.203-.602l-5.356 1.673Zm6.222-2.883a.69.69 0 0 0-.572.8.693.693 0 1 0 1.366-.228.698.698 0 0 0-.77-.572h-.024ZM1.746 29.47a1.155 1.155 0 0 0-.798 1.747 1.155 1.155 0 0 0 2.122-.796 1.156 1.156 0 0 0-1.324-.95Zm32.29 12.936a1.154 1.154 0 0 0-.486 2.078 1.155 1.155 0 1 0 .486-2.078Zm24.919-18.004a1.154 1.154 0 0 0-.898 1.546 1.156 1.156 0 1 0 .898-1.546ZM41.558 17.9a1.155 1.155 0 1 0 .369 2.281 1.155 1.155 0 0 0-.369-2.281ZM25.503 48.569a.698.698 0 0 0-.602.795.699.699 0 0 0 .8.572.69.69 0 1 0-.198-1.367Zm8.762-35.237a.693.693 0 0 0-.602.795.693.693 0 1 0 1.366-.229.687.687 0 0 0-.764-.566ZM10.5 28.074a.698.698 0 0 0-.571.794.7.7 0 0 0 .8.602.683.683 0 0 0 .566-.794.694.694 0 0 0-.795-.602Zm45.89-10.582a.692.692 0 1 0 .223 1.365.692.692 0 0 0-.222-1.365Zm-9.965 16.065a.698.698 0 0 0-.601.795.692.692 0 1 0 .601-.795Zm-26.17 12.755a.692.692 0 0 0-.572.795.698.698 0 0 0 .795.572.692.692 0 1 0-.223-1.367Zm-1.89-32.083a.691.691 0 0 0-.601.795.685.685 0 0 0 .794.602.693.693 0 0 0 .602-.795.691.691 0 0 0-.795-.602Zm29.781 8.843a.692.692 0 1 0 .71.338.688.688 0 0 0-.71-.338ZM18.53 8.108a1.727 1.727 0 1 0 .541 3.412 1.726 1.726 0 0 0 1.427-1.986 1.728 1.728 0 0 0-1.968-1.426Zm1.462 24.715a1.74 1.74 0 0 0-1.432 1.992 1.733 1.733 0 0 0 3.418-.566 1.74 1.74 0 0 0-1.986-1.426Zm47.034-18.136a1.733 1.733 0 1 0 1.991 1.432 1.74 1.74 0 0 0-1.992-1.432Zm-46.336 6.62a2.31 2.31 0 0 0-.968 4.155 2.31 2.31 0 0 0 1.72.403 2.31 2.31 0 0 0 1.902-2.655 2.311 2.311 0 0 0-2.654-1.926v.024Zm12.065-.92a2.075 2.075 0 0 0-.855 3.75 2.076 2.076 0 0 0 3.232-2.083 2.077 2.077 0 0 0-2.377-1.691v.024Zm1.264 10.04a2.882 2.882 0 0 0-1.208 5.188 2.882 2.882 0 0 0 4.524-2.81 2.883 2.883 0 0 0-3.316-2.402v.024Z" fill="#fff"/><path d="M79.662 16.336v6.218l9.628-6.218h6.505l-11.03 6.802 11.879 7.692h-6.506l-10.476-7.09v7.09H75.72V16.337h3.942ZM116.681 16.336c.958-.01 1.904.219 2.75.668a5.07 5.07 0 0 1 1.998 1.806 4.65 4.65 0 0 1 0 5.014 5.035 5.035 0 0 1-1.986 1.806 5.862 5.862 0 0 1-2.75.656h-10.356v4.526h-3.96V16.336h14.304Zm-10.344 6.76h9.971a2.208 2.208 0 0 0 1.408-.5 1.715 1.715 0 0 0 0-2.534 1.893 1.893 0 0 0-1.396-.5h-9.983v3.534ZM131.858 16.336v4.815h10.512a5.678 5.678 0 0 1 2.678.644 4.853 4.853 0 0 1 1.92 1.758 4.485 4.485 0 0 1 0 4.845 4.926 4.926 0 0 1-1.932 1.758 5.61 5.61 0 0 1-2.666.644h-14.472V16.336h3.96Zm0 11.28h10.127c.473.018.935-.143 1.294-.451a1.634 1.634 0 0 0 .504-1.177 1.637 1.637 0 0 0-.504-1.177 1.805 1.805 0 0 0-1.282-.451h-10.139v3.256Zm23.288-11.28V30.83h-3.954V16.336h3.954ZM183.988 16.336V30.83h-3.96v-9.185l-5.891 7.885h-3.4l-5.891-7.885v9.185h-3.948V16.336h4.104l7.444 10.154 7.438-10.154h4.104ZM84.867 36.35v1.71h-3.55v5.32h-2.07v-5.32h-3.551v-1.71h9.17ZM94.705 36.35v1.71h-6.62v.933h5.712v1.685h-5.711v.993h6.62v1.71h-8.642v-7.03h8.641ZM99.52 36.35l2.791 2.276 2.805-2.276h3.195l-4.375 3.377 4.76 3.654h-3.195l-3.19-2.565-3.17 2.565h-3.232l4.754-3.654-4.381-3.377h3.237ZM111.946 36.35v2.558h5.325V36.35h2.07v7.03h-2.07v-2.756h-5.325v2.757h-2.064v-7.03h2.064ZM128.199 36.35a2.34 2.34 0 0 1 1.631.602 1.857 1.857 0 0 1 .668 1.481v2.883a1.94 1.94 0 0 1-.173.815 1.94 1.94 0 0 1-.501.666c-.445.4-1.027.616-1.625.602h-5.356c-.6.015-1.184-.2-1.63-.602a1.927 1.927 0 0 1-.668-1.48v-2.872a1.897 1.897 0 0 1 .674-1.48 2.333 2.333 0 0 1 1.624-.603l5.356-.012Zm-5.362 1.914a.648.648 0 0 0-.222.5v2.203a.666.666 0 0 0 .228.5.97.97 0 0 0 .548.204h4.254a.956.956 0 0 0 .554-.204.657.657 0 0 0 .223-.5v-2.203a.626.626 0 0 0-.229-.5.776.776 0 0 0-.548-.204h-4.254a.801.801 0 0 0-.554.204ZM141.197 36.35v7.03h-2.052v-5.32h-4.212v3.256a1.96 1.96 0 0 1-.674 1.487c-.443.4-1.023.615-1.619.602h-.915V41.67h.361a.938.938 0 0 0 .566-.21.654.654 0 0 0 .223-.494V36.35h8.322ZM150.067 36.35c.6-.016 1.184.2 1.63.602a1.849 1.849 0 0 1 .668 1.481v2.883a1.916 1.916 0 0 1-.674 1.48c-.445.402-1.026.617-1.624.603h-5.356a2.347 2.347 0 0 1-1.631-.602 1.925 1.925 0 0 1-.68-1.48v-2.872a1.913 1.913 0 0 1 .674-1.48 2.335 2.335 0 0 1 1.625-.603l5.368-.012Zm-5.362 1.914a.656.656 0 0 0-.223.5v2.203a.683.683 0 0 0 .229.5.968.968 0 0 0 .548.204h4.254a.958.958 0 0 0 .554-.204.603.603 0 0 0 .222-.5v-2.203a.625.625 0 0 0-.228-.5.777.777 0 0 0-.548-.204h-4.26a.8.8 0 0 0-.56.204h.012ZM153.575 43.38v-7.03h8.31v1.71h-6.24v5.32h-2.07ZM163.089 43.38v-7.03h2.076v4.683l5.771-4.683h1.998v7.03h-2.076v-4.682l-5.747 4.683h-2.022ZM174.137 43.38v-7.03h2.07v4.683l5.771-4.683H184v7.03h-2.04v-4.682l-5.783 4.683h-2.04Z" fill="#fff"/></svg>